<svg width="40" height="42" viewBox="0 0 40 42" fill="none" xmlns="http://www.w3.org/2000/svg">
<rect y="0.550049" width="40" height="40.5" rx="8" fill="#F2EFFF"/>
<g clip-path="url(#clip0_149_14512)">
<g clip-path="url(#clip1_149_14512)">
<path opacity="0.9" d="M13.3078 29.55C12.8026 29.55 12.375 29.375 12.025 29.025C11.675 28.675 11.5 28.2474 11.5 27.7423V14.3578C11.5 13.8526 11.675 13.425 12.025 13.075C12.375 12.725 12.8026 12.55 13.3078 12.55H26.6923C27.1974 12.55 27.625 12.725 27.975 13.075C28.325 13.425 28.5 13.8526 28.5 14.3578V27.7423C28.5 28.2474 28.325 28.675 27.975 29.025C27.625 29.375 27.1974 29.55 26.6923 29.55H13.3078ZM13.3078 28.05H26.6923C26.7692 28.05 26.8398 28.0179 26.9038 27.9538C26.9679 27.8898 27 27.8192 27 27.7423V14.3578C27 14.2808 26.9679 14.2103 26.9038 14.1463C26.8398 14.0821 26.7692 14.05 26.6923 14.05H13.3078C13.2308 14.05 13.1603 14.0821 13.0963 14.1463C13.0321 14.2103 13 14.2808 13 14.3578V27.7423C13 27.8192 13.0321 27.8898 13.0963 27.9538C13.1603 28.0179 13.2308 28.05 13.3078 28.05Z" fill="#6D28D2"/>
<g opacity="0.5">
<path d="M18.117 19.4019L16.4689 21.0499L18.1267 22.7077C18.2817 22.8628 18.3592 23.0384 18.3592 23.2344C18.3592 23.4306 18.2817 23.6063 18.1267 23.7614C17.9715 23.9166 17.7917 23.9926 17.5872 23.9894C17.3827 23.9861 17.2061 23.9101 17.0574 23.7614L14.9784 21.6827C14.8849 21.589 14.8189 21.4903 14.7804 21.3864C14.7419 21.2826 14.7227 21.1704 14.7227 21.0499C14.7227 20.9294 14.7419 20.8173 14.7804 20.7134C14.8189 20.6096 14.8849 20.5108 14.9784 20.4172L17.0477 18.348C17.2028 18.193 17.3811 18.1155 17.5824 18.1155C17.7836 18.1155 17.9617 18.193 18.117 18.348C18.2721 18.5031 18.3481 18.6804 18.345 18.8797C18.3416 19.079 18.2656 19.2531 18.117 19.4019Z" fill="#6D28D2"/>
<path d="M21.8726 22.7077L23.5303 21.0499L21.8726 19.3922C21.7176 19.237 21.6401 19.0614 21.6401 18.8655C21.6401 18.6693 21.7176 18.4936 21.8726 18.3385C21.9471 18.2641 22.0324 18.2084 22.1284 18.1712C22.2245 18.1341 22.3191 18.1155 22.4121 18.1155C22.5051 18.1155 22.598 18.1341 22.6909 18.1712C22.7839 18.2084 22.8675 18.2641 22.9419 18.3385L25.0208 20.4172C25.1143 20.5108 25.1804 20.6096 25.2189 20.7134C25.2574 20.8173 25.2766 20.9294 25.2766 21.0499C25.2766 21.1704 25.2574 21.2826 25.2189 21.3864C25.1804 21.4903 25.1143 21.589 25.0208 21.6827L22.9419 23.7614C22.7867 23.9166 22.6085 23.9942 22.4073 23.9942C22.206 23.9942 22.0278 23.9166 21.8726 23.7614C21.7176 23.6063 21.6417 23.429 21.6449 23.2297C21.648 23.0303 21.7239 22.8563 21.8726 22.7077Z" fill="#6D28D2"/>
</g>
</g>
</g>
<defs>
<clipPath id="clip0_149_14512">
<rect width="24" height="24" fill="white" transform="translate(8 9.05005)"/>
</clipPath>
<clipPath id="clip1_149_14512">
<rect width="24" height="24" fill="white" transform="translate(8 9.05005)"/>
</clipPath>
</defs>
</svg>
