<svg width="34" height="21" viewBox="0 0 34 21" fill="none" xmlns="http://www.w3.org/2000/svg">
<path d="M18.0004 14.1884C18.1776 14.1884 18.326 14.1284 18.4456 14.0086C18.5653 13.8888 18.6252 13.7404 18.6252 13.5634V10.0217C18.6252 9.8446 18.5652 9.69613 18.4454 9.57627C18.3255 9.45655 18.177 9.39669 18 9.39669C17.8227 9.39669 17.6743 9.45655 17.5547 9.57627C17.435 9.69613 17.3752 9.8446 17.3752 10.0217V13.5634C17.3752 13.7404 17.4351 13.8888 17.555 14.0086C17.6748 14.1284 17.8233 14.1884 18.0004 14.1884ZM18.0002 7.97044C18.1909 7.97044 18.3507 7.90592 18.4797 7.7769C18.6088 7.64787 18.6733 7.48801 18.6733 7.29731C18.6733 7.10662 18.6088 6.94676 18.4797 6.81773C18.3507 6.68884 18.1909 6.6244 18.0002 6.6244C17.8095 6.6244 17.6496 6.68884 17.5206 6.81773C17.3916 6.94676 17.327 7.10662 17.327 7.29731C17.327 7.48801 17.3916 7.64787 17.5206 7.7769C17.6496 7.90592 17.8095 7.97044 18.0002 7.97044ZM18.0016 18.1467C16.9066 18.1467 15.8774 17.9389 14.9139 17.5234C13.9504 17.1078 13.1124 16.5438 12.3997 15.8315C11.6871 15.1191 11.1229 14.2814 10.707 13.3184C10.2913 12.3553 10.0835 11.3263 10.0835 10.2315C10.0835 9.13648 10.2913 8.10724 10.7068 7.14377C11.1224 6.1803 11.6863 5.34224 12.3987 4.6296C13.1111 3.91697 13.9488 3.35273 14.9118 2.9369C15.8749 2.5212 16.9038 2.31335 17.9987 2.31335C19.0937 2.31335 20.1229 2.52113 21.0864 2.93669C22.0499 3.35224 22.8879 3.9162 23.6006 4.62856C24.3132 5.34092 24.8775 6.17863 25.2933 7.14169C25.709 8.10474 25.9168 9.1337 25.9168 10.2286C25.9168 11.3236 25.7091 12.3528 25.2935 13.3163C24.8779 14.2797 24.314 15.1178 23.6016 15.8304C22.8893 16.5431 22.0516 17.1073 21.0885 17.5231C20.1254 17.9388 19.0965 18.1467 18.0016 18.1467ZM18.0002 16.8967C19.8613 16.8967 21.4377 16.2509 22.7293 14.9592C24.021 13.6675 24.6668 12.0911 24.6668 10.23C24.6668 8.36891 24.021 6.79252 22.7293 5.50085C21.4377 4.20919 19.8613 3.56335 18.0002 3.56335C16.1391 3.56335 14.5627 4.20919 13.271 5.50085C11.9793 6.79252 11.3335 8.36891 11.3335 10.23C11.3335 12.0911 11.9793 13.6675 13.271 14.9592C14.5627 16.2509 16.1391 16.8967 18.0002 16.8967Z" fill="#595C73"/>
</svg>
