<svg width="1292" height="27" viewBox="0 0 1292 27" fill="none" xmlns="http://www.w3.org/2000/svg">
<g clip-path="url(#clip0_149_15233)">
<path d="M9.99728 18.0361C8.91395 18.0361 7.89089 17.8286 6.92812 17.4136C5.98653 17.0131 5.1305 16.4357 4.40645 15.7127C3.68376 14.9886 3.10667 14.1326 2.70645 13.1911C2.2897 12.2218 2.0775 11.177 2.08312 10.1219C2.08312 9.02468 2.29117 7.99691 2.70728 7.03857C3.11031 6.10129 3.68713 5.24878 4.40728 4.52607C5.13131 3.80407 5.98703 3.22755 6.92812 2.82774C7.89803 2.41008 8.94378 2.1973 9.99978 2.20274C10.177 2.20274 10.3253 2.26274 10.4448 2.38274C10.5034 2.44083 10.5496 2.51023 10.5805 2.58673C10.6115 2.66324 10.6265 2.74523 10.6248 2.82774C10.6248 3.00552 10.5648 3.15413 10.4448 3.27357C10.3866 3.33204 10.3172 3.37807 10.2407 3.40887C10.1642 3.43967 10.0822 3.4546 9.99978 3.45274C8.15256 3.45274 6.57978 4.10218 5.28145 5.40107C3.98256 6.6994 3.33312 8.27218 3.33312 10.1194C3.33312 11.9666 3.98256 13.5397 5.28145 14.8386C6.58034 16.1375 8.15312 16.7866 9.99978 16.7861C11.8464 16.7855 13.4195 16.1363 14.719 14.8386C16.0184 13.5408 16.6676 11.9677 16.6664 10.1194C16.6664 9.94163 16.7264 9.79329 16.8464 9.6744C16.9045 9.61579 16.9739 9.5696 17.0504 9.53866C17.1269 9.50771 17.2089 9.49266 17.2914 9.4944C17.4692 9.4944 17.6178 9.5544 17.7373 9.6744C17.7957 9.73256 17.8418 9.802 17.8726 9.8785C17.9034 9.955 17.9183 10.037 17.9164 10.1194C17.9164 11.2027 17.7084 12.2263 17.2923 13.1902C16.8922 14.1321 16.3151 14.9884 15.5923 15.7127C14.8695 16.4326 14.017 17.0091 13.0798 17.4119C12.1214 17.8286 11.0939 18.0366 9.99728 18.0361Z" fill="#2A2B3F"/>
<path d="M336.997 18.0361C335.914 18.0361 334.891 17.8286 333.928 17.4136C332.987 17.0131 332.131 16.4357 331.406 15.7127C330.684 14.9886 330.107 14.1326 329.706 13.1911C329.29 12.2218 329.077 11.177 329.083 10.1219C329.083 9.02468 329.291 7.99691 329.707 7.03857C330.11 6.10129 330.687 5.24878 331.407 4.52607C332.131 3.80407 332.987 3.22755 333.928 2.82774C334.898 2.41008 335.944 2.1973 337 2.20274C337.177 2.20274 337.325 2.26274 337.445 2.38274C337.503 2.44083 337.55 2.51023 337.581 2.58673C337.611 2.66324 337.627 2.74523 337.625 2.82774C337.625 3.00552 337.565 3.15413 337.445 3.27357C337.387 3.33204 337.317 3.37807 337.241 3.40887C337.164 3.43967 337.082 3.4546 337 3.45274C335.153 3.45274 333.58 4.10218 332.281 5.40107C330.983 6.6994 330.333 8.27218 330.333 10.1194C330.333 11.9666 330.983 13.5397 332.281 14.8386C333.58 16.1375 335.153 16.7866 337 16.7861C338.846 16.7855 340.42 16.1363 341.719 14.8386C343.018 13.5408 343.668 11.9677 343.666 10.1194C343.666 9.94163 343.726 9.79329 343.846 9.6744C343.905 9.61579 343.974 9.5696 344.05 9.53866C344.127 9.50771 344.209 9.49266 344.291 9.4944C344.469 9.4944 344.618 9.5544 344.737 9.6744C344.796 9.73256 344.842 9.802 344.873 9.8785C344.903 9.955 344.918 10.037 344.916 10.1194C344.916 11.2027 344.708 12.2263 344.292 13.1902C343.892 14.1321 343.315 14.9884 342.592 15.7127C341.87 16.4326 341.017 17.0091 340.08 17.4119C339.121 17.8286 338.094 18.0366 336.997 18.0361Z" fill="#2A2B3F"/>
<path d="M663.997 18.0361C662.914 18.0361 661.891 17.8286 660.928 17.4136C659.987 17.0131 659.131 16.4357 658.406 15.7127C657.684 14.9886 657.107 14.1326 656.706 13.1911C656.29 12.2218 656.077 11.177 656.083 10.1219C656.083 9.02468 656.291 7.99691 656.707 7.03857C657.11 6.10129 657.687 5.24878 658.407 4.52607C659.131 3.80407 659.987 3.22755 660.928 2.82774C661.898 2.41008 662.944 2.1973 664 2.20274C664.177 2.20274 664.325 2.26274 664.445 2.38274C664.503 2.44083 664.55 2.51023 664.581 2.58673C664.611 2.66324 664.627 2.74523 664.625 2.82774C664.625 3.00552 664.565 3.15413 664.445 3.27357C664.387 3.33204 664.317 3.37807 664.241 3.40887C664.164 3.43967 664.082 3.4546 664 3.45274C662.153 3.45274 660.58 4.10218 659.281 5.40107C657.983 6.6994 657.333 8.27218 657.333 10.1194C657.333 11.9666 657.983 13.5397 659.281 14.8386C660.58 16.1375 662.153 16.7866 664 16.7861C665.846 16.7855 667.42 16.1363 668.719 14.8386C670.018 13.5408 670.668 11.9677 670.666 10.1194C670.666 9.94163 670.726 9.79329 670.846 9.6744C670.905 9.61579 670.974 9.5696 671.05 9.53866C671.127 9.50771 671.209 9.49266 671.291 9.4944C671.469 9.4944 671.618 9.5544 671.737 9.6744C671.796 9.73256 671.842 9.802 671.873 9.8785C671.903 9.955 671.918 10.037 671.916 10.1194C671.916 11.2027 671.708 12.2263 671.292 13.1902C670.892 14.1321 670.315 14.9884 669.592 15.7127C668.87 16.4326 668.017 17.0091 667.08 17.4119C666.121 17.8286 665.094 18.0366 663.997 18.0361Z" fill="#2A2B3F"/>
<path d="M990.997 18.0361C989.914 18.0361 988.891 17.8286 987.928 17.4136C986.987 17.0131 986.131 16.4357 985.406 15.7127C984.684 14.9886 984.107 14.1326 983.706 13.1911C983.29 12.2218 983.077 11.177 983.083 10.1219C983.083 9.02468 983.291 7.99691 983.707 7.03857C984.11 6.10129 984.687 5.24878 985.407 4.52607C986.131 3.80407 986.987 3.22755 987.928 2.82774C988.898 2.41008 989.944 2.1973 991 2.20274C991.177 2.20274 991.325 2.26274 991.445 2.38274C991.503 2.44083 991.55 2.51023 991.581 2.58673C991.611 2.66324 991.627 2.74523 991.625 2.82774C991.625 3.00552 991.565 3.15413 991.445 3.27357C991.387 3.33204 991.317 3.37807 991.241 3.40887C991.164 3.43967 991.082 3.4546 991 3.45274C989.153 3.45274 987.58 4.10218 986.281 5.40107C984.983 6.6994 984.333 8.27218 984.333 10.1194C984.333 11.9666 984.983 13.5397 986.281 14.8386C987.58 16.1375 989.153 16.7866 991 16.7861C992.846 16.7855 994.42 16.1363 995.719 14.8386C997.018 13.5408 997.668 11.9677 997.666 10.1194C997.666 9.94163 997.726 9.79329 997.846 9.6744C997.905 9.61579 997.974 9.5696 998.05 9.53866C998.127 9.50771 998.209 9.49266 998.291 9.4944C998.469 9.4944 998.618 9.5544 998.737 9.6744C998.796 9.73256 998.842 9.802 998.873 9.8785C998.903 9.955 998.918 10.037 998.916 10.1194C998.916 11.2027 998.708 12.2263 998.292 13.1902C997.892 14.1321 997.315 14.9884 996.592 15.7127C995.87 16.4326 995.017 17.0091 994.08 17.4119C993.121 17.8286 992.094 18.0366 990.997 18.0361Z" fill="#2A2B3F"/>
</g>
<defs>
<clipPath id="clip0_149_15233">
<rect width="1292" height="25.9" fill="white" transform="translate(0 0.119629)"/>
</clipPath>
</defs>
</svg>
