<svg width="32" height="33" viewBox="0 0 32 33" fill="none" xmlns="http://www.w3.org/2000/svg">
<path d="M16.0002 13.0607C16.1608 13.0607 16.3104 13.0863 16.4488 13.1377C16.5873 13.189 16.7189 13.277 16.8438 13.4017L22.8362 19.394C23.0206 19.5787 23.115 19.8108 23.1195 20.0903C23.1237 20.3697 23.0293 20.606 22.8362 20.7993C22.6428 20.9924 22.4086 21.089 22.1335 21.089C21.8584 21.089 21.6242 20.9924 21.4308 20.7993L16.0002 15.3683L10.5695 20.7993C10.3848 20.9838 10.1527 21.0782 9.87316 21.0827C9.59383 21.0869 9.35749 20.9924 9.16416 20.7993C8.97105 20.606 8.87449 20.3718 8.87449 20.0967C8.87449 19.8215 8.97105 19.5873 9.16416 19.394L15.1565 13.4017C15.2814 13.277 15.413 13.189 15.5515 13.1377C15.6899 13.0863 15.8395 13.0607 16.0002 13.0607Z" fill="#595C73"/>
</svg>
