<svg width="21" height="21" viewBox="0 0 21 21" fill="none" xmlns="http://www.w3.org/2000/svg">
<path d="M10.2704 14.9283C10.4476 14.9283 10.596 14.8684 10.7156 14.7485C10.8353 14.6288 10.8952 14.4804 10.8952 14.3033V10.7616C10.8952 10.5845 10.8353 10.4361 10.7154 10.3162C10.5955 10.1965 10.4471 10.1366 10.27 10.1366C10.0928 10.1366 9.94435 10.1965 9.82477 10.3162C9.70504 10.4361 9.64518 10.5845 9.64518 10.7616V14.3033C9.64518 14.4804 9.70511 14.6288 9.82497 14.7485C9.94484 14.8684 10.0933 14.9283 10.2704 14.9283ZM10.2702 8.71037C10.4609 8.71037 10.6207 8.64585 10.7498 8.51683C10.8788 8.3878 10.9433 8.22794 10.9433 8.03724C10.9433 7.84655 10.8788 7.68669 10.7498 7.55766C10.6207 7.42877 10.4609 7.36433 10.2702 7.36433C10.0795 7.36433 9.91963 7.42877 9.7906 7.55766C9.66157 7.68669 9.59706 7.84655 9.59706 8.03724C9.59706 8.22794 9.66157 8.3878 9.7906 8.51683C9.91963 8.64585 10.0795 8.71037 10.2702 8.71037ZM10.2716 18.8866C9.17664 18.8866 8.1474 18.6788 7.18393 18.2633C6.22046 17.8477 5.3824 17.2838 4.66977 16.5714C3.95713 15.859 3.39289 15.0213 2.97706 14.0583C2.56136 13.0952 2.35352 12.0663 2.35352 10.9714C2.35352 9.87641 2.56129 8.84717 2.97685 7.8837C3.3924 6.92023 3.95636 6.08217 4.66872 5.36953C5.38109 4.65689 6.21879 4.09266 7.18185 3.67683C8.14491 3.26113 9.17386 3.05328 10.2687 3.05328C11.3637 3.05328 12.393 3.26106 13.3564 3.67662C14.3199 4.09217 15.158 4.65613 15.8706 5.36849C16.5832 6.08085 17.1475 6.91856 17.5633 7.88162C17.979 8.84467 18.1868 9.87363 18.1868 10.9685C18.1868 12.0635 17.9791 13.0927 17.5635 14.0562C17.148 15.0197 16.584 15.8577 15.8716 16.5704C15.1593 17.283 14.3216 17.8472 13.3585 18.2631C12.3955 18.6788 11.3665 18.8866 10.2716 18.8866ZM10.2702 17.6366C12.1313 17.6366 13.7077 16.9908 14.9993 15.6991C16.291 14.4075 16.9368 12.8311 16.9368 10.97C16.9368 9.10884 16.291 7.53245 14.9993 6.24078C13.7077 4.94912 12.1313 4.30328 10.2702 4.30328C8.40907 4.30328 6.83268 4.94912 5.54102 6.24078C4.24935 7.53245 3.60352 9.10884 3.60352 10.97C3.60352 12.8311 4.24935 14.4075 5.54102 15.6991C6.83268 16.9908 8.40907 17.6366 10.2702 17.6366Z" fill="#595C73"/>
</svg>
