<svg width="24" height="25" viewBox="0 0 24 25" fill="none" xmlns="http://www.w3.org/2000/svg">
<path d="M12.0001 16.8585L8.10988 19.2045C7.96488 19.2892 7.81963 19.3248 7.67413 19.3113C7.52863 19.2978 7.39696 19.2488 7.27913 19.1643C7.16113 19.0796 7.07005 18.969 7.00588 18.8325C6.94188 18.696 6.93163 18.545 6.97513 18.3795L8.00788 13.9623L4.57338 10.9893C4.44505 10.8778 4.3633 10.7486 4.32813 10.6018C4.2928 10.4549 4.30205 10.3123 4.35588 10.1738C4.40971 10.0354 4.4873 9.92237 4.58863 9.83453C4.68996 9.7467 4.82846 9.68928 5.00413 9.66228L9.53663 9.26628L11.2964 5.09503C11.3604 4.93987 11.4575 4.82511 11.5876 4.75078C11.7178 4.67645 11.8553 4.63928 12.0001 4.63928C12.145 4.63928 12.2825 4.67645 12.4126 4.75078C12.5428 4.82511 12.6399 4.93987 12.7039 5.09503L14.4636 9.26628L18.9961 9.66228C19.1718 9.68928 19.3103 9.7467 19.4116 9.83453C19.513 9.92237 19.5905 10.0354 19.6444 10.1738C19.6982 10.3123 19.7075 10.4549 19.6721 10.6018C19.637 10.7486 19.5552 10.8778 19.4269 10.9893L15.9924 13.9623L17.0251 18.3795C17.0686 18.545 17.0584 18.696 16.9944 18.8325C16.9302 18.969 16.8391 19.0796 16.7211 19.1643C16.6033 19.2488 16.4716 19.2978 16.3261 19.3113C16.1806 19.3248 16.0354 19.2892 15.8904 19.2045L12.0001 16.8585Z" fill="#C4710D"/>
</svg>
