<svg width="20" height="20" viewBox="0 0 20 20" fill="none" xmlns="http://www.w3.org/2000/svg">
<path d="M7.93247 13.0127C6.50941 13.0127 5.30427 12.5192 4.31705 11.5321C3.32997 10.5449 2.83643 9.33971 2.83643 7.91666C2.83643 6.4936 3.32997 5.28847 4.31705 4.30124C5.30427 3.31416 6.50941 2.82062 7.93247 2.82062C9.35552 2.82062 10.5607 3.31416 11.5479 4.30124C12.535 5.28847 13.0285 6.4936 13.0285 7.91666C13.0285 8.5118 12.9286 9.0802 12.7289 9.62187C12.5291 10.1635 12.2625 10.6346 11.9291 11.0352L16.7241 15.8302C16.8396 15.9455 16.8986 16.0905 16.9012 16.2652C16.9039 16.4399 16.8448 16.5876 16.7241 16.7083C16.6034 16.829 16.4571 16.8894 16.285 16.8894C16.113 16.8894 15.9667 16.829 15.846 16.7083L11.051 11.9133C10.6343 12.2574 10.1552 12.5266 9.61351 12.721C9.07184 12.9155 8.5115 13.0127 7.93247 13.0127ZM7.93247 11.7629C9.00622 11.7629 9.91566 11.3903 10.6608 10.645C11.4061 9.89985 11.7787 8.99041 11.7787 7.91666C11.7787 6.84291 11.4061 5.93346 10.6608 5.18833C9.91566 4.44305 9.00622 4.07041 7.93247 4.07041C6.85872 4.07041 5.94927 4.44305 5.20413 5.18833C4.45886 5.93346 4.08622 6.84291 4.08622 7.91666C4.08622 8.99041 4.45886 9.89985 5.20413 10.645C5.94927 11.3903 6.85872 11.7629 7.93247 11.7629Z" fill="#2A2B3F"/>
</svg>
