<svg width="20" height="20" viewBox="0 0 20 20" fill="none" xmlns="http://www.w3.org/2000/svg">
<path d="M9.99225 16.4246C9.81377 16.4246 9.63454 16.3926 9.45454 16.3285C9.27454 16.2644 9.11614 16.164 8.97933 16.0273L7.78225 14.9392C6.30475 13.5919 4.98558 12.2685 3.82475 10.9688C2.66391 9.66903 2.0835 8.27667 2.0835 6.79167C2.0835 5.60903 2.48225 4.61889 3.27975 3.82125C4.07738 3.02375 5.06752 2.625 6.25016 2.625C6.92211 2.625 7.58586 2.77993 8.24141 3.08979C8.89683 3.39965 9.48308 3.90285 10.0002 4.59938C10.5172 3.90285 11.1035 3.39965 11.7589 3.08979C12.4145 2.77993 13.0782 2.625 13.7502 2.625C14.9328 2.625 15.9229 3.02375 16.7206 3.82125C17.5181 4.61889 17.9168 5.60903 17.9168 6.79167C17.9168 8.29278 17.3266 9.70063 16.146 11.0152C14.9654 12.3298 13.6492 13.642 12.1972 14.9519L11.0129 16.0273C10.8762 16.164 10.7166 16.2644 10.5339 16.3285C10.3511 16.3926 10.1706 16.4246 9.99225 16.4246ZM9.40079 5.86542C8.94995 5.17847 8.4753 4.675 7.97683 4.355C7.4785 4.035 6.90294 3.875 6.25016 3.875C5.41683 3.875 4.72238 4.15278 4.16683 4.70833C3.61127 5.26389 3.3335 5.95833 3.3335 6.79167C3.3335 7.46042 3.54905 8.15965 3.98016 8.88938C4.41127 9.6191 4.95238 10.3445 5.6035 11.0656C6.25461 11.7869 6.96002 12.4915 7.71975 13.1794C8.47933 13.8674 9.18336 14.5069 9.83183 15.0977C9.87989 15.1405 9.936 15.1619 10.0002 15.1619C10.0643 15.1619 10.1204 15.1405 10.1685 15.0977C10.817 14.5069 11.521 13.8674 12.2806 13.1794C13.0403 12.4915 13.7457 11.7869 14.3968 11.0656C15.0479 10.3445 15.5891 9.6191 16.0202 8.88938C16.4513 8.15965 16.6668 7.46042 16.6668 6.79167C16.6668 5.95833 16.3891 5.26389 15.8335 4.70833C15.2779 4.15278 14.5835 3.875 13.7502 3.875C13.0974 3.875 12.5218 4.035 12.0235 4.355C11.525 4.675 11.0504 5.17847 10.5995 5.86542C10.529 5.97222 10.4403 6.05236 10.3335 6.10583C10.2267 6.15917 10.1156 6.18583 10.0002 6.18583C9.88475 6.18583 9.77364 6.15917 9.66683 6.10583C9.56002 6.05236 9.47134 5.97222 9.40079 5.86542Z" fill="#2A2B3F"/>
</svg>
