<svg width="20" height="20" viewBox="0 0 20 20" fill="none" xmlns="http://www.w3.org/2000/svg">
<path d="M3.54199 14.6954C3.36491 14.6954 3.21651 14.6355 3.09678 14.5156C2.97692 14.3959 2.91699 14.2474 2.91699 14.0702C2.91699 13.8931 2.97692 13.7447 3.09678 13.625C3.21651 13.5054 3.36491 13.4456 3.54199 13.4456H16.4587C16.6357 13.4456 16.7841 13.5055 16.9039 13.6252C17.0237 13.7451 17.0837 13.8936 17.0837 14.0708C17.0837 14.2479 17.0237 14.3963 16.9039 14.516C16.7841 14.6356 16.6357 14.6954 16.4587 14.6954H3.54199ZM3.54199 10.625C3.36491 10.625 3.21651 10.5651 3.09678 10.4452C2.97692 10.3253 2.91699 10.1769 2.91699 9.99979C2.91699 9.82257 2.97692 9.67416 3.09678 9.55458C3.21651 9.43486 3.36491 9.375 3.54199 9.375H16.4587C16.6357 9.375 16.7841 9.43493 16.9039 9.55479C17.0237 9.67465 17.0837 9.82312 17.0837 10.0002C17.0837 10.1774 17.0237 10.3258 16.9039 10.4454C16.7841 10.5651 16.6357 10.625 16.4587 10.625H3.54199ZM3.54199 6.55437C3.36491 6.55437 3.21651 6.49451 3.09678 6.37479C2.97692 6.25493 2.91699 6.10639 2.91699 5.92916C2.91699 5.75208 2.97692 5.60368 3.09678 5.48396C3.21651 5.36437 3.36491 5.30458 3.54199 5.30458H16.4587C16.6357 5.30458 16.7841 5.36451 16.9039 5.48437C17.0237 5.60409 17.0837 5.75257 17.0837 5.92979C17.0837 6.10687 17.0237 6.25528 16.9039 6.375C16.7841 6.49458 16.6357 6.55437 16.4587 6.55437H3.54199Z" fill="#2A2B3F"/>
</svg>
