<svg width="16" height="17" viewBox="0 0 16 17" fill="none" xmlns="http://www.w3.org/2000/svg">
<path d="M1.19873 11.7597C1.19873 11.4161 1.2874 11.1095 1.46473 10.8398C1.64206 10.5702 1.8789 10.3604 2.17523 10.2105C2.80879 9.90061 3.44584 9.66167 4.0864 9.49367C4.72706 9.32578 5.43112 9.24184 6.19856 9.24184C6.96612 9.24184 7.67018 9.32578 8.31073 9.49367C8.9514 9.66167 9.58851 9.90061 10.2221 10.2105C10.5184 10.3604 10.7552 10.5702 10.9326 10.8398C11.1099 11.1095 11.1986 11.4161 11.1986 11.7597V12.229C11.1986 12.4973 11.1001 12.7332 10.9031 12.9367C10.7061 13.1401 10.467 13.2418 10.1857 13.2418H2.2114C1.93029 13.2418 1.69123 13.1433 1.49423 12.9463C1.29723 12.7492 1.19873 12.5101 1.19873 12.229V11.7597ZM13.7884 13.2418H12.2742C12.358 13.0888 12.4219 12.926 12.4659 12.7533C12.5099 12.5807 12.5319 12.4059 12.5319 12.229V11.6777C12.5319 11.2401 12.4248 10.8231 12.2106 10.4265C11.9962 10.0301 11.6922 9.68989 11.2986 9.406C11.7456 9.47267 12.17 9.57584 12.5717 9.7155C12.9734 9.85528 13.3567 10.0204 13.7217 10.211C14.0662 10.3948 14.3322 10.6114 14.5197 10.8608C14.7073 11.1102 14.8011 11.3824 14.8011 11.6777V12.229C14.8011 12.5101 14.7026 12.7492 14.5056 12.9463C14.3086 13.1433 14.0695 13.2418 13.7884 13.2418ZM6.19856 8.16484C5.5569 8.16484 5.00762 7.93639 4.55073 7.4795C4.09384 7.0225 3.8654 6.47317 3.8654 5.8315C3.8654 5.18984 4.09384 4.64056 4.55073 4.18367C5.00762 3.72667 5.5569 3.49817 6.19856 3.49817C6.84023 3.49817 7.38956 3.72667 7.84656 4.18367C8.30345 4.64056 8.5319 5.18984 8.5319 5.8315C8.5319 6.47317 8.30345 7.0225 7.84656 7.4795C7.38956 7.93639 6.84023 8.16484 6.19856 8.16484ZM11.9549 5.8315C11.9549 6.47317 11.7265 7.0225 11.2696 7.4795C10.8127 7.93639 10.2634 8.16484 9.62173 8.16484C9.54651 8.16484 9.45079 8.15628 9.33456 8.13917C9.21823 8.12206 9.12251 8.10328 9.0474 8.08284C9.31029 7.76672 9.51234 7.41606 9.65356 7.03084C9.79467 6.64561 9.86523 6.24561 9.86523 5.83084C9.86523 5.41595 9.79323 5.01745 9.64923 4.63534C9.50523 4.25334 9.30462 3.90167 9.0474 3.58034C9.14306 3.54611 9.23879 3.52389 9.33456 3.51367C9.43023 3.50334 9.52595 3.49817 9.62173 3.49817C10.2634 3.49817 10.8127 3.72667 11.2696 4.18367C11.7265 4.64056 11.9549 5.18984 11.9549 5.8315ZM2.19856 12.2418H10.1986V11.7597C10.1986 11.6204 10.1637 11.4966 10.0941 11.388C10.0245 11.2794 9.91406 11.1846 9.76273 11.1033C9.21406 10.8204 8.64912 10.6061 8.0679 10.4603C7.48668 10.3147 6.86356 10.2418 6.19856 10.2418C5.53368 10.2418 4.91062 10.3147 4.3294 10.4603C3.74817 10.6061 3.18323 10.8204 2.63456 11.1033C2.48323 11.1846 2.37273 11.2794 2.30306 11.388C2.2334 11.4966 2.19856 11.6204 2.19856 11.7597V12.2418ZM6.19856 7.16484C6.56523 7.16484 6.87912 7.03428 7.14023 6.77317C7.40134 6.51206 7.5319 6.19817 7.5319 5.8315C7.5319 5.46484 7.40134 5.15095 7.14023 4.88984C6.87912 4.62872 6.56523 4.49817 6.19856 4.49817C5.8319 4.49817 5.51801 4.62872 5.2569 4.88984C4.99579 5.15095 4.86523 5.46484 4.86523 5.8315C4.86523 6.19817 4.99579 6.51206 5.2569 6.77317C5.51801 7.03428 5.8319 7.16484 6.19856 7.16484Z" fill="#595C73"/>
</svg>
