<svg width="106" height="30" viewBox="0 0 106 30" fill="none" xmlns="http://www.w3.org/2000/svg">
<path d="M78.1642 22.7338C74.5445 22.7338 72.2952 20.6433 72.2952 17.2738C72.2952 13.7767 74.3708 11.601 77.7128 11.601H77.9932C78.4124 11.601 78.9896 11.6147 79.7781 11.7128V7.4917H82.1389V22.3533C82.1389 22.3533 79.8958 22.7338 78.1642 22.7338ZM78.143 13.4542C75.8561 13.4542 74.7442 14.6849 74.7442 17.2151C74.7442 19.4869 76.0859 20.899 78.2415 20.899C78.6559 20.899 79.1305 20.8717 79.7774 20.8165V13.6056C79.1312 13.5019 78.6101 13.4542 78.143 13.4542ZM45.8274 22.3928L39.4503 11.2976L39.4482 22.3928H37.2256V8.3467H40.3372L46.7143 19.3431L46.7116 8.3467H48.9636V22.3928H45.8274ZM66.1404 22.609C65.0667 22.609 63.9472 22.489 62.6143 22.2333L62.47 22.206V20.2438L62.6807 20.2888C63.8562 20.539 64.8711 20.7524 65.8867 20.7524C66.7066 20.7524 68.6167 20.6242 68.6167 19.4208C68.6167 18.4117 67.2968 18.1581 66.2368 17.9556L66.1698 17.9419C65.9715 17.9051 65.7848 17.8676 65.6275 17.8281C64.0723 17.4258 62.4133 16.821 62.4133 14.7435C62.4133 12.7172 64.0217 11.556 66.827 11.556C68.1735 11.556 69.1508 11.6992 69.9365 11.8165L70.3181 11.8724V13.7767L70.115 13.7399C69.226 13.5769 68.1838 13.4092 67.1819 13.4092C66.0679 13.4092 64.746 13.6172 64.746 14.6051C64.746 15.4253 65.8278 15.6599 67.0807 15.9319C68.8328 16.3097 71.0048 16.7842 71.0048 19.1678C71.0048 21.3544 69.2335 22.609 66.1404 22.609ZM88.7662 22.609C86.3228 22.609 84.0598 22.1794 84.0598 19.069C84.0598 15.6838 87.5592 15.6838 89.6512 15.6838C89.8591 15.6838 90.8425 15.7294 91.1441 15.7424C91.1413 13.8435 91.1174 13.3908 88.3552 13.3908C87.2604 13.3908 86.0444 13.6063 84.9708 13.7985L84.7656 13.8353V11.9603L84.9037 11.931C86.1484 11.6788 87.3486 11.556 88.572 11.556C91.2487 11.556 93.5164 11.8247 93.5164 15.1356V22.356L93.3537 22.3744C91.4997 22.5817 90.0273 22.609 88.7662 22.609ZM89.5924 17.359C87.5749 17.359 86.3248 17.6549 86.3248 19.1276C86.3248 20.8322 87.9196 20.9733 89.4159 20.9733C89.974 20.9733 90.9786 20.9017 91.2856 20.8799V17.4176C90.8534 17.3992 89.7284 17.359 89.5924 17.359ZM55.6416 22.609C53.1947 22.609 50.9325 22.1794 50.9325 19.069C50.9325 15.6838 54.4318 15.6838 56.5231 15.6838C56.7317 15.6838 57.7171 15.7294 58.0194 15.7424C58.0167 13.8435 57.99 13.3908 55.2279 13.3908C54.1323 13.3908 52.9164 13.6063 51.8427 13.7985L51.6375 13.8353V11.9603L51.7791 11.931C52.985 11.6824 54.2132 11.5568 55.4446 11.556C58.1206 11.556 60.389 11.8247 60.389 15.1356V22.356L60.2256 22.3744C58.3723 22.5817 56.8999 22.609 55.6416 22.609ZM56.4643 17.359C54.4476 17.359 53.2002 17.6549 53.2002 19.1276C53.2002 20.8322 54.7922 20.9733 56.2885 20.9733C56.8493 20.9733 57.8539 20.9017 58.161 20.8799V17.4176C57.7253 17.3992 56.6004 17.359 56.4643 17.359Z" fill="#D1D7DC"/>
<mask id="mask0_149_15295" style="mask-type:alpha" maskUnits="userSpaceOnUse" x="95" y="10" width="11" height="18">
<path d="M95.0576 10.9189H105.335V27.2825H95.0576V10.9189Z" fill="#D1D7DC"/>
</mask>
<g mask="url(#mask0_149_15295)">
<path d="M102.916 27.1652V22.5575C101.995 22.6857 101.506 22.6857 101.111 22.6857C100.175 22.6857 99.1365 22.4832 98.3325 22.145C96.5315 21.3984 95.4585 19.503 95.4585 17.0709C95.4585 15.8573 95.7555 13.638 97.7395 12.4421C98.7365 11.8489 99.9115 11.5952 101.68 11.5952C102.312 11.5952 103.167 11.643 103.993 11.6907L105.334 11.7602V26.0975L102.916 27.1652ZM101.503 13.4491C99.1045 13.4484 97.8885 14.6689 97.8885 17.0709C97.8885 20.1637 99.7025 20.8134 101.227 20.8134C101.598 20.8134 102.015 20.8134 102.939 20.6962V13.5159C102.216 13.4682 101.881 13.4491 101.503 13.4491Z" fill="#D1D7DC"/>
</g>
<mask id="mask1_149_15295" style="mask-type:alpha" maskUnits="userSpaceOnUse" x="17" y="0" width="19" height="23">
<path d="M17.0967 0.0209961H35.5612V22.5101H17.0967V0.0209961Z" fill="#D1D7DC"/>
</mask>
<g mask="url(#mask1_149_15295)">
<path d="M26.6788 0.0209961L18.8703 21.4096C18.7738 21.673 18.6048 21.9039 18.3828 22.076C18.1607 22.2481 17.8945 22.3543 17.6147 22.3826V22.3928H25.8691C26.5153 22.3928 27.0686 21.9831 27.2744 21.4103L35.0856 0.0209961H26.6788Z" fill="#D1D7DC"/>
</g>
<path d="M16.9414 22.0683C17.4201 22.0683 17.8394 21.831 18.0958 21.4717C18.1225 21.4342 18.2162 21.3033 18.2825 21.1253L21.1466 13.2762L19.4711 8.69243C19.3735 8.46033 19.2154 8.25843 19.0132 8.10773C18.811 7.95693 18.5721 7.86293 18.3212 7.83523C18.0703 7.80753 17.8165 7.84723 17.5862 7.95023C17.3558 8.05323 17.1573 8.21583 17.0112 8.42103C16.9838 8.45853 16.8724 8.62563 16.8245 8.76743L13.9604 16.6137L15.6434 21.216C15.7526 21.469 15.9337 21.6845 16.1644 21.836C16.3951 21.9874 16.6652 22.0682 16.9414 22.0683Z" fill="#D1D7DC"/>
<mask id="mask2_149_15295" style="mask-type:alpha" maskUnits="userSpaceOnUse" x="-1" y="6" width="19" height="24">
<path d="M-0.684082 6.82812H17.7804V29.8715H-0.684082V6.82812Z" fill="#D1D7DC"/>
</mask>
<g mask="url(#mask2_149_15295)">
<path d="M17.5535 7.49902H9.20821C8.56201 7.49902 8.00871 7.90672 7.80011 8.48222L-0.00830078 29.8708H8.39851L16.2076 8.48292C16.309 8.20462 16.491 7.96272 16.7307 7.78802C16.9704 7.61322 17.2568 7.51362 17.5535 7.50172V7.49902Z" fill="#D1D7DC"/>
</g>
</svg>
