<svg width="16" height="17" viewBox="0 0 16 17" fill="none" xmlns="http://www.w3.org/2000/svg">
<path d="M1.19873 11.7698C1.19873 11.4262 1.2874 11.1196 1.46473 10.85C1.64206 10.5803 1.8789 10.3705 2.17523 10.2206C2.80879 9.91075 3.44584 9.6718 4.0864 9.5038C4.72706 9.33591 5.43112 9.25197 6.19856 9.25197C6.96612 9.25197 7.67018 9.33591 8.31073 9.5038C8.9514 9.6718 9.58851 9.91075 10.2221 10.2206C10.5184 10.3705 10.7552 10.5803 10.9326 10.85C11.1099 11.1196 11.1986 11.4262 11.1986 11.7698V12.2391C11.1986 12.5075 11.1001 12.7434 10.9031 12.9468C10.7061 13.1502 10.467 13.252 10.1857 13.252H2.2114C1.93029 13.252 1.69123 13.1535 1.49423 12.9565C1.29723 12.7594 1.19873 12.5202 1.19873 12.2391V11.7698ZM13.7884 13.252H12.2742C12.358 13.099 12.4219 12.9361 12.4659 12.7635C12.5099 12.5908 12.5319 12.416 12.5319 12.2391V11.6878C12.5319 11.2502 12.4248 10.8332 12.2106 10.4366C11.9962 10.0402 11.6922 9.70002 11.2986 9.41613C11.7456 9.4828 12.17 9.58597 12.5717 9.72563C12.9734 9.86541 13.3567 10.0306 13.7217 10.2211C14.0662 10.4049 14.3322 10.6215 14.5197 10.871C14.7073 11.1203 14.8011 11.3926 14.8011 11.6878V12.2391C14.8011 12.5202 14.7026 12.7594 14.5056 12.9565C14.3086 13.1535 14.0695 13.252 13.7884 13.252ZM6.19856 8.17497C5.5569 8.17497 5.00762 7.94652 4.55073 7.48963C4.09384 7.03263 3.8654 6.4833 3.8654 5.84163C3.8654 5.19997 4.09384 4.65069 4.55073 4.1938C5.00762 3.7368 5.5569 3.5083 6.19856 3.5083C6.84023 3.5083 7.38956 3.7368 7.84656 4.1938C8.30345 4.65069 8.5319 5.19997 8.5319 5.84163C8.5319 6.4833 8.30345 7.03263 7.84656 7.48963C7.38956 7.94652 6.84023 8.17497 6.19856 8.17497ZM11.9549 5.84163C11.9549 6.4833 11.7265 7.03263 11.2696 7.48963C10.8127 7.94652 10.2634 8.17497 9.62173 8.17497C9.54651 8.17497 9.45079 8.16641 9.33456 8.1493C9.21823 8.13219 9.12251 8.11341 9.0474 8.09297C9.31029 7.77686 9.51234 7.42619 9.65356 7.04097C9.79467 6.65575 9.86523 6.25575 9.86523 5.84097C9.86523 5.42608 9.79323 5.02758 9.64923 4.64547C9.50523 4.26347 9.30462 3.9118 9.0474 3.59047C9.14306 3.55625 9.23879 3.53402 9.33456 3.5238C9.43023 3.51347 9.52595 3.5083 9.62173 3.5083C10.2634 3.5083 10.8127 3.7368 11.2696 4.1938C11.7265 4.65069 11.9549 5.19997 11.9549 5.84163ZM2.19856 12.252H10.1986V11.7698C10.1986 11.6306 10.1637 11.5067 10.0941 11.3981C10.0245 11.2896 9.91406 11.1947 9.76273 11.1135C9.21406 10.8306 8.64912 10.6162 8.0679 10.4705C7.48668 10.3248 6.86356 10.252 6.19856 10.252C5.53368 10.252 4.91062 10.3248 4.3294 10.4705C3.74817 10.6162 3.18323 10.8306 2.63456 11.1135C2.48323 11.1947 2.37273 11.2896 2.30306 11.3981C2.2334 11.5067 2.19856 11.6306 2.19856 11.7698V12.252ZM6.19856 7.17497C6.56523 7.17497 6.87912 7.04441 7.14023 6.7833C7.40134 6.52219 7.5319 6.2083 7.5319 5.84163C7.5319 5.47497 7.40134 5.16108 7.14023 4.89997C6.87912 4.63886 6.56523 4.5083 6.19856 4.5083C5.8319 4.5083 5.51801 4.63886 5.2569 4.89997C4.99579 5.16108 4.86523 5.47497 4.86523 5.84163C4.86523 6.2083 4.99579 6.52219 5.2569 6.7833C5.51801 7.04441 5.8319 7.17497 6.19856 7.17497Z" fill="#595C73"/>
</svg>
