<svg width="32" height="33" viewBox="0 0 32 33" fill="none" xmlns="http://www.w3.org/2000/svg">
<path d="M15.9998 19.9895C15.8392 19.9895 15.6896 19.9638 15.5512 19.9125C15.4127 19.8612 15.2811 19.7732 15.1562 19.6485L9.16384 13.6562C8.9794 13.4715 8.88495 13.2394 8.88051 12.9598C8.87628 12.6805 8.97073 12.4442 9.16384 12.2508C9.35717 12.0577 9.5914 11.9612 9.86651 11.9612C10.1416 11.9612 10.3758 12.0577 10.5692 12.2508L15.9998 17.6818L21.4305 12.2508C21.6152 12.0664 21.8473 11.972 22.1268 11.9675C22.4062 11.9633 22.6425 12.0577 22.8358 12.2508C23.029 12.4442 23.1255 12.6784 23.1255 12.9535C23.1255 13.2286 23.029 13.4628 22.8358 13.6562L16.8435 19.6485C16.7186 19.7732 16.587 19.8612 16.4485 19.9125C16.3101 19.9638 16.1605 19.9895 15.9998 19.9895Z" fill="#595C73"/>
</svg>
