<svg width="21" height="24" viewBox="0 0 21 24" fill="none" xmlns="http://www.w3.org/2000/svg">
<path d="M8.14832 14.7593L15.3471 7.56056C15.471 7.43653 15.616 7.3732 15.7821 7.37056C15.9482 7.36792 16.0959 7.43126 16.2252 7.56056C16.3545 7.68987 16.4192 7.83834 16.4192 8.00598C16.4192 8.17376 16.3545 8.3223 16.2252 8.4516L8.67561 16.0141C8.52492 16.1647 8.34915 16.2399 8.14832 16.2399C7.94749 16.2399 7.77172 16.1647 7.62103 16.0141L4.14186 12.5349C4.01797 12.4109 3.95686 12.2637 3.95853 12.0933C3.96006 11.923 4.02547 11.7732 4.15478 11.6439C4.28408 11.5146 4.43256 11.4499 4.6002 11.4499C4.76797 11.4499 4.91652 11.5146 5.04582 11.6439L8.14832 14.7593Z" fill="#595C73"/>
</svg>
