<svg width="20" height="18" viewBox="0 0 20 18" fill="none" xmlns="http://www.w3.org/2000/svg">
<path d="M9.17038 11.0415L13.0799 8.53571C13.335 8.36771 13.4626 8.13246 13.4626 7.82996C13.4626 7.52746 13.335 7.29221 13.0799 7.12421L9.17038 4.61846C8.89472 4.43379 8.61072 4.41871 8.31838 4.57321C8.02605 4.72771 7.87988 4.97287 7.87988 5.30871V10.3512C7.87988 10.687 8.02605 10.9322 8.31838 11.0867C8.61072 11.2412 8.89472 11.2261 9.17038 11.0415ZM2.43763 15.33C1.93247 15.33 1.50488 15.155 1.15488 14.805C0.804883 14.455 0.629883 14.0274 0.629883 13.5222V2.13771C0.629883 1.63254 0.804883 1.20496 1.15488 0.854956C1.50488 0.504956 1.93247 0.329956 2.43763 0.329956H17.8221C18.3273 0.329956 18.7549 0.504956 19.1049 0.854956C19.4549 1.20496 19.6299 1.63254 19.6299 2.13771V13.5222C19.6299 14.0274 19.4549 14.455 19.1049 14.805C18.7549 15.155 18.3273 15.33 17.8221 15.33H13.6299V16.426C13.6299 16.6838 13.5436 16.8989 13.3711 17.0712C13.1988 17.2437 12.9837 17.33 12.7259 17.33H7.53388C7.27605 17.33 7.06097 17.2437 6.88863 17.0712C6.71613 16.8989 6.62988 16.6838 6.62988 16.426V15.33H2.43763ZM2.43763 13.83H17.8221C17.8991 13.83 17.9696 13.7979 18.0336 13.7337C18.0978 13.6697 18.1299 13.5992 18.1299 13.5222V2.13771C18.1299 2.06071 18.0978 1.99021 18.0336 1.92621C17.9696 1.86204 17.8991 1.82996 17.8221 1.82996H2.43763C2.36063 1.82996 2.29013 1.86204 2.22613 1.92621C2.16197 1.99021 2.12988 2.06071 2.12988 2.13771V13.5222C2.12988 13.5992 2.16197 13.6697 2.22613 13.7337C2.29013 13.7979 2.36063 13.83 2.43763 13.83Z" fill="#2A2B3F"/>
</svg>
