<svg width="18" height="18" viewBox="0 0 18 18" fill="none" xmlns="http://www.w3.org/2000/svg">
<path d="M8.37988 16.24V12.813C7.51188 12.6873 6.74747 12.3479 6.08663 11.7947C5.4258 11.2416 4.97738 10.5464 4.74138 9.70924C3.58755 9.57207 2.61388 9.08232 1.82038 8.23999C1.02672 7.39766 0.629883 6.39766 0.629883 5.23999V4.54774C0.629883 4.05057 0.806883 3.62499 1.16088 3.27099C1.51488 2.91699 1.94047 2.73999 2.43763 2.73999H4.45688V2.54774C4.45688 2.05057 4.63388 1.62499 4.98788 1.27099C5.34188 0.91699 5.76747 0.73999 6.26463 0.73999H11.9951C12.4923 0.73999 12.9179 0.91699 13.2719 1.27099C13.6259 1.62499 13.8029 2.05057 13.8029 2.54774V2.73999H15.8221C16.3193 2.73999 16.7449 2.91699 17.0989 3.27099C17.4529 3.62499 17.6299 4.05057 17.6299 4.54774V5.23999C17.6299 6.39766 17.233 7.39766 16.4394 8.23999C15.6459 9.08232 14.6722 9.57207 13.5184 9.70924C13.2824 10.5464 12.834 11.2416 12.1731 11.7947C11.5123 12.3479 10.7479 12.6873 9.87988 12.813V16.24H12.6876C12.9001 16.24 13.0782 16.3119 13.2219 16.4557C13.3657 16.5996 13.4376 16.7777 13.4376 16.9902C13.4376 17.2029 13.3657 17.381 13.2219 17.5245C13.0782 17.6682 12.9001 17.74 12.6876 17.74H5.57213C5.35963 17.74 5.18155 17.6681 5.03788 17.5242C4.89405 17.3804 4.82213 17.2022 4.82213 16.9897C4.82213 16.7771 4.89405 16.599 5.03788 16.4555C5.18155 16.3118 5.35963 16.24 5.57213 16.24H8.37988ZM4.45688 8.09774V4.23999H2.43763C2.3478 4.23999 2.27405 4.26882 2.21638 4.32649C2.15872 4.38416 2.12988 4.45791 2.12988 4.54774V5.23999C2.12988 5.93099 2.34847 6.54191 2.78563 7.07274C3.2228 7.60341 3.77988 7.94507 4.45688 8.09774ZM9.13213 11.3747C10.0088 11.3747 10.7532 11.0681 11.3654 10.4547C11.9775 9.84141 12.2836 9.09674 12.2836 8.22074V2.54774C12.2836 2.45791 12.2548 2.38416 12.1971 2.32649C12.1395 2.26882 12.0658 2.23999 11.9761 2.23999H6.28363C6.19397 2.23999 6.1203 2.26882 6.06263 2.32649C6.00497 2.38416 5.97613 2.45791 5.97613 2.54774V8.22074C5.97613 9.09674 6.28297 9.84141 6.89663 10.4547C7.5103 11.0681 8.25547 11.3747 9.13213 11.3747ZM13.8029 8.09774C14.4799 7.94507 15.037 7.60341 15.4741 7.07274C15.9113 6.54191 16.1299 5.93099 16.1299 5.23999V4.54774C16.1299 4.45791 16.101 4.38416 16.0434 4.32649C15.9857 4.26882 15.912 4.23999 15.8221 4.23999H13.8029V8.09774Z" fill="#2A2B3F"/>
</svg>
