<svg width="16" height="16" viewBox="0 0 16 16" fill="none" xmlns="http://www.w3.org/2000/svg">
<path d="M8.13001 13.1284L4.23976 15.4744C4.09476 15.5591 3.94951 15.5947 3.80401 15.5812C3.65851 15.5677 3.52685 15.5187 3.40901 15.4342C3.29101 15.3495 3.19993 15.2389 3.13576 15.1024C3.07176 14.9659 3.06151 14.8149 3.10501 14.6494L4.13776 10.2322L0.703264 7.25918C0.57493 7.14768 0.49318 7.01851 0.458014 6.87168C0.42268 6.72485 0.43193 6.58218 0.485764 6.44368C0.539597 6.30535 0.61718 6.19226 0.718514 6.10443C0.819847 6.0166 0.958347 5.95918 1.13401 5.93218L5.66651 5.53618L7.42626 1.36493C7.49026 1.20976 7.58735 1.09501 7.71751 1.02068C7.84768 0.946345 7.98518 0.90918 8.13001 0.90918C8.27485 0.90918 8.41235 0.946345 8.54251 1.02068C8.67268 1.09501 8.76976 1.20976 8.83376 1.36493L10.5935 5.53618L15.126 5.93218C15.3017 5.95918 15.4402 6.0166 15.5415 6.10443C15.6428 6.19226 15.7204 6.30535 15.7743 6.44368C15.8281 6.58218 15.8373 6.72485 15.802 6.87168C15.7668 7.01851 15.6851 7.14768 15.5568 7.25918L12.1223 10.2322L13.155 14.6494C13.1985 14.8149 13.1883 14.9659 13.1243 15.1024C13.0601 15.2389 12.969 15.3495 12.851 15.4342C12.7332 15.5187 12.6015 15.5677 12.456 15.5812C12.3105 15.5947 12.1653 15.5591 12.0203 15.4744L8.13001 13.1284Z" fill="#C4710D"/>
</svg>
