<svg width="37" height="33" viewBox="0 0 37 33" fill="none" xmlns="http://www.w3.org/2000/svg">
<path d="M35.7404 24.3242C35.7404 19.8001 32.5461 16.3128 27.5667 16.5013C28.0364 10.1864 32.9219 4.71981 36.2102 2.17501L35.2706 0.76123C28.4123 5.09681 19.7688 14.0508 19.7688 23.2874C19.7688 28.5656 22.7752 32.4298 27.6607 32.4298C32.5461 32.4298 35.7404 28.6598 35.7404 24.3242ZM16.6318 24.3242C16.6318 19.8001 13.4374 16.3128 8.45805 16.5013C8.92781 10.1864 13.8132 4.71981 17.1015 2.17501L16.162 0.76123C9.30358 5.09681 0.660156 14.0508 0.660156 23.2874C0.660156 28.5656 3.66657 32.4298 8.55198 32.4298C13.4374 32.4298 16.6318 28.6598 16.6318 24.3242Z" fill="#1C1D1F"/>
</svg>
