<svg width="24" height="25" viewBox="0 0 24 25" fill="none" xmlns="http://www.w3.org/2000/svg">
<path d="M10.053 8.15841L15.684 16.1824H14.187L8.566 8.15841H10.053ZM21 6.17041V18.1704C21 18.9661 20.6839 19.7291 20.1213 20.2917C19.5587 20.8543 18.7956 21.1704 18 21.1704H6C5.20435 21.1704 4.44129 20.8543 3.87868 20.2917C3.31607 19.7291 3 18.9661 3 18.1704V6.17041C3 5.37476 3.31607 4.6117 3.87868 4.04909C4.44129 3.48648 5.20435 3.17041 6 3.17041H18C18.7956 3.17041 19.5587 3.48648 20.1213 4.04909C20.6839 4.6117 21 5.37476 21 6.17041ZM17.538 17.1704L13.352 11.1804L16.774 7.17041H15.463L12.759 10.3304L10.552 7.17041H6.702L10.643 12.8034L6.906 17.1704H8.239L11.24 13.6544L13.698 17.1704H17.538Z" fill="#2A2B3F"/>
</svg>
