<svg width="12" height="11" viewBox="0 0 12 11" fill="none" xmlns="http://www.w3.org/2000/svg">
<path d="M5.99979 8.04538L3.73048 9.41388C3.6459 9.46327 3.56117 9.48402 3.47629 9.47615C3.39142 9.46827 3.31461 9.43969 3.24587 9.3904C3.17704 9.34101 3.12391 9.2765 3.08648 9.19688C3.04915 9.11725 3.04317 9.02917 3.06854 8.93263L3.67098 6.3559L1.66752 4.62165C1.59266 4.55661 1.54497 4.48126 1.52446 4.39561C1.50385 4.30995 1.50924 4.22673 1.54065 4.14594C1.57205 4.06524 1.61731 3.99928 1.67642 3.94804C1.73553 3.89681 1.81632 3.86331 1.91879 3.84756L4.56275 3.61656L5.58927 1.18333C5.6266 1.09282 5.68324 1.02588 5.75917 0.982522C5.8351 0.93916 5.91531 0.91748 5.99979 0.91748C6.08428 0.91748 6.16449 0.93916 6.24042 0.982522C6.31635 1.02588 6.37298 1.09282 6.41031 1.18333L7.43683 3.61656L10.0808 3.84756C10.1833 3.86331 10.2641 3.89681 10.3232 3.94804C10.3823 3.99928 10.4275 4.06524 10.4589 4.14594C10.4903 4.22673 10.4957 4.30995 10.4751 4.39561C10.4546 4.48126 10.4069 4.55661 10.3321 4.62165L8.3286 6.3559L8.93104 8.93263C8.95642 9.02917 8.95044 9.11725 8.9131 9.19688C8.87567 9.2765 8.82254 9.34101 8.75371 9.3904C8.68497 9.43969 8.60817 9.46827 8.52329 9.47615C8.43842 9.48402 8.35369 9.46327 8.2691 9.41388L5.99979 8.04538Z" stroke="#C4710D" stroke-width="1.16667"/>
</svg>
